<svg xmlns="http://www.w3.org/2000/svg" xmlns:xlink="http://www.w3.org/1999/xlink" width="500" zoomAndPan="magnify" viewBox="0 0 375 374.999991" height="500" preserveAspectRatio="xMidYMid meet" version="1.0"><defs><g/></defs><g fill="#f94d1f" fill-opacity="1"><g transform="translate(19.592037, 247.120177)"><g><path d="M 35.859375 1.203125 C 26.410156 1.203125 18.847656 -1.757812 13.171875 -7.6875 C 7.503906 -13.613281 4.671875 -21.75 4.671875 -32.09375 L 4.671875 -91.734375 C 4.671875 -104.585938 7.226562 -114.28125 12.34375 -120.8125 C 17.46875 -127.34375 25.503906 -130.609375 36.453125 -130.609375 C 45.992188 -130.609375 53.675781 -127.992188 59.5 -122.765625 C 65.320312 -117.546875 68.234375 -110.015625 68.234375 -100.171875 L 68.234375 -77.875 L 42.484375 -77.875 L 42.484375 -97.015625 C 42.484375 -100.734375 42.03125 -103.289062 41.125 -104.6875 C 40.21875 -106.09375 38.660156 -106.796875 36.453125 -106.796875 C 34.140625 -106.796875 32.554688 -105.992188 31.703125 -104.390625 C 30.847656 -102.785156 30.421875 -100.425781 30.421875 -97.3125 L 30.421875 -32.390625 C 30.421875 -28.972656 30.921875 -26.484375 31.921875 -24.921875 C 32.929688 -23.367188 34.441406 -22.59375 36.453125 -22.59375 C 40.472656 -22.59375 42.484375 -25.859375 42.484375 -32.390625 L 42.484375 -55.734375 L 68.546875 -55.734375 L 68.546875 -31.328125 C 68.546875 -9.640625 57.648438 1.203125 35.859375 1.203125 Z M 35.859375 1.203125 "/></g></g></g><g fill="#f94d1f" fill-opacity="1"><g transform="translate(90.992904, 247.120177)"><g><path d="M 36.609375 1.203125 C 26.160156 1.203125 18.222656 -1.984375 12.796875 -8.359375 C 7.378906 -14.734375 4.671875 -23.695312 4.671875 -35.25 L 4.671875 -96.859375 C 4.671875 -108.003906 7.378906 -116.414062 12.796875 -122.09375 C 18.222656 -127.769531 26.160156 -130.609375 36.609375 -130.609375 C 47.046875 -130.609375 54.976562 -127.769531 60.40625 -122.09375 C 65.832031 -116.414062 68.546875 -108.003906 68.546875 -96.859375 L 68.546875 -35.25 C 68.546875 -23.601562 65.832031 -14.613281 60.40625 -8.28125 C 54.976562 -1.957031 47.046875 1.203125 36.609375 1.203125 Z M 36.609375 -22.59375 C 38.921875 -22.59375 40.476562 -23.597656 41.28125 -25.609375 C 42.082031 -27.617188 42.484375 -30.429688 42.484375 -34.046875 L 42.484375 -97.3125 C 42.484375 -100.125 42.101562 -102.40625 41.34375 -104.15625 C 40.59375 -105.914062 39.0625 -106.796875 36.75 -106.796875 C 32.4375 -106.796875 30.28125 -103.535156 30.28125 -97.015625 L 30.28125 -33.890625 C 30.28125 -30.179688 30.726562 -27.367188 31.625 -25.453125 C 32.53125 -23.546875 34.191406 -22.59375 36.609375 -22.59375 Z M 36.609375 -22.59375 "/></g></g></g><g fill="#f94d1f" fill-opacity="1"><g transform="translate(164.201368, 247.120177)"><g><path d="M 4.375 -37.515625 L 4.375 -54.53125 L 42.328125 -54.53125 L 42.328125 -37.515625 Z M 4.375 -37.515625 "/></g></g></g><g fill="#f94d1f" fill-opacity="1"><g transform="translate(211.048775, 247.120177)"><g><path d="M 36.609375 1.203125 C 26.160156 1.203125 18.222656 -1.984375 12.796875 -8.359375 C 7.378906 -14.734375 4.671875 -23.695312 4.671875 -35.25 L 4.671875 -96.859375 C 4.671875 -108.003906 7.378906 -116.414062 12.796875 -122.09375 C 18.222656 -127.769531 26.160156 -130.609375 36.609375 -130.609375 C 47.046875 -130.609375 54.976562 -127.769531 60.40625 -122.09375 C 65.832031 -116.414062 68.546875 -108.003906 68.546875 -96.859375 L 68.546875 -35.25 C 68.546875 -23.601562 65.832031 -14.613281 60.40625 -8.28125 C 54.976562 -1.957031 47.046875 1.203125 36.609375 1.203125 Z M 36.609375 -22.59375 C 38.921875 -22.59375 40.476562 -23.597656 41.28125 -25.609375 C 42.082031 -27.617188 42.484375 -30.429688 42.484375 -34.046875 L 42.484375 -97.3125 C 42.484375 -100.125 42.101562 -102.40625 41.34375 -104.15625 C 40.59375 -105.914062 39.0625 -106.796875 36.75 -106.796875 C 32.4375 -106.796875 30.28125 -103.535156 30.28125 -97.015625 L 30.28125 -33.890625 C 30.28125 -30.179688 30.726562 -27.367188 31.625 -25.453125 C 32.53125 -23.546875 34.191406 -22.59375 36.609375 -22.59375 Z M 36.609375 -22.59375 "/></g></g></g><g fill="#f94d1f" fill-opacity="1"><g transform="translate(284.257239, 247.120177)"><g><path d="M 5.71875 -129.40625 L 39.921875 -129.40625 C 50.265625 -129.40625 57.644531 -126.0625 62.0625 -119.375 C 66.476562 -112.695312 68.6875 -102.929688 68.6875 -90.078125 C 68.6875 -77.222656 66.726562 -67.53125 62.8125 -61 C 58.894531 -54.476562 51.867188 -51.21875 41.734375 -51.21875 L 31.1875 -51.21875 L 31.1875 0 L 5.71875 0 Z M 32.6875 -74.5625 C 35.800781 -74.5625 38.085938 -75.140625 39.546875 -76.296875 C 41.003906 -77.453125 41.957031 -79.109375 42.40625 -81.265625 C 42.851562 -83.429688 43.078125 -86.519531 43.078125 -90.53125 C 43.078125 -95.957031 42.472656 -99.875 41.265625 -102.28125 C 40.066406 -104.695312 37.660156 -105.90625 34.046875 -105.90625 L 31.1875 -105.90625 L 31.1875 -74.5625 Z M 32.6875 -74.5625 "/></g></g></g></svg>